<?xml version="1.0" encoding="UTF-8" standalone="no"?>
<svg
   width="4.73611in"
   height="3.76389in"
   viewBox="0 0 341 271"
   version="1.1"
   id="svg3"
   sodipodi:docname="bootstrap logo blanc.svg"
   inkscape:version="1.1.2 (0a00cf5339, 2022-02-04, custom)"
   xmlns:inkscape="http://www.inkscape.org/namespaces/inkscape"
   xmlns:sodipodi="http://sodipodi.sourceforge.net/DTD/sodipodi-0.dtd"
   xmlns="http://www.w3.org/2000/svg"
   xmlns:svg="http://www.w3.org/2000/svg">
  <defs
     id="defs7" />
  <sodipodi:namedview
     id="namedview5"
     pagecolor="#7dffff"
     bordercolor="#666666"
     borderopacity="1.0"
     inkscape:pageshadow="2"
     inkscape:pageopacity="0"
     inkscape:pagecheckerboard="0"
     inkscape:document-units="in"
     showgrid="false"
     inkscape:zoom="0.90082999"
     inkscape:cx="173.72868"
     inkscape:cy="87.696903"
     inkscape:window-width="1600"
     inkscape:window-height="837"
     inkscape:window-x="-8"
     inkscape:window-y="-8"
     inkscape:window-maximized="1"
     inkscape:current-layer="svg3" />
  <path
     style="fill:#ffffff;stroke-width:1.11009"
     d="M 86.463315,358.57111 C 70.309634,355.05716 59.10826,344.9446 54.159524,329.40735 52.986776,325.72534 52.203855,315.81313 51.551894,296.39333 50.1935,255.93116 46.683134,237.70772 36.419262,217.83497 28.442156,202.38982 17.951301,193.38218 6.0866064,191.79078 L 1.6651311,191.19774 V 180.84086 170.48399 L 6.3644128,169.2186 C 23.79149,164.52597 34.758887,152.28035 42.86364,128.46547 48.385813,112.2392 50.550701,96.46318 51.581001,64.940112 52.369461,40.816388 52.840996,35.692321 54.771594,30.268666 58.046804,21.067569 62.878092,14.695468 70.374587,9.6895008 83.298185,1.0594528 73.896873,1.5163271 230.89818,1.8885578 l 139.87101,0.331617 6.26876,2.5347147 c 11.82748,4.7823236 20.04466,14.2867505 24.47576,28.3099555 1.80475,5.711523 2.3392,11.959231 3.10654,36.315616 0.97564,30.967889 2.22648,40.575329 7.43245,57.087439 7.28868,23.11797 20.57585,38.71437 36.37052,42.69151 l 5.04748,1.27097 v 10.52985 c 0,9.72269 -0.167,10.52984 -2.17854,10.52984 -1.1982,0 -5.00209,1.05643 -8.45309,2.34762 -11.98128,4.48277 -23.73049,19.85113 -30.45463,39.8357 -5.27617,15.68109 -6.7592,26.87143 -7.72363,58.27959 -0.71042,23.13572 -1.35331,31.36501 -2.81847,36.07784 -5.34706,17.1994 -18.04478,28.11833 -36.06855,31.0158 -11.59424,1.86387 -270.583175,1.42295 -279.310475,-0.47551 z m 178.026405,-79.7609 c 23.72619,-6.22379 39.01341,-23.0985 42.3649,-46.76422 3.40839,-24.06761 -8.98412,-45.64436 -30.92924,-53.85129 l -6.86526,-2.56743 5.89599,-3.16507 c 7.58843,-4.07359 13.6622,-10.76716 17.98949,-19.82519 2.92923,-6.13156 3.50494,-8.75862 3.83219,-17.48674 0.83808,-22.35298 -9.56786,-39.302547 -29.15322,-47.485835 -10.2045,-4.263711 -19.30247,-4.962925 -64.57623,-4.962925 h -43.7508 v 99.44287 99.44286 l 49.12137,-0.47704 c 40.88763,-0.39706 50.28623,-0.78259 56.07081,-2.29999 z"
     id="path898"
     transform="scale(0.74999998)" />
  <path
     style="fill:#ffffff;stroke-width:1.11009"
     d="m 194.26529,252.17033 c -2.11665,-1.58894 -2.22017,-2.96226 -2.22017,-29.45282 0,-21.0048 0.3446,-28.13077 1.412,-29.19817 1.9579,-1.9579 27.90389,-2.60718 42.16942,-1.05526 25.13396,2.73428 36.17896,11.77325 36.11221,29.5534 -0.0376,10.00601 -2.51758,16.01854 -8.93855,21.6705 -8.53626,7.51392 -15.59951,9.10183 -43.0029,9.66766 -19.53647,0.40338 -23.67139,0.21142 -25.53201,-1.18531 z"
     id="path974"
     transform="scale(0.74999998)" />
  <path
     style="fill:#ffffff;stroke-width:1.11009"
     d="m 195.58986,166.2908 c -3.46023,-0.89678 -4.09979,-5.37581 -4.09979,-28.71223 0,-29.18658 -1.61933,-27.13275 21.36919,-27.10289 30.85648,0.0401 41.84825,3.42313 47.57436,14.64245 2.8044,5.49474 2.82053,17.50435 0.0317,23.6431 -4.25786,9.37257 -14.65759,15.05279 -31.40425,17.15264 -9.13023,1.14483 -29.61804,1.37555 -33.47125,0.37693 z"
     id="path1013"
     transform="scale(0.74999998)" />
</svg>
