<?xml version="1.0" encoding="UTF-8" standalone="no"?>
<svg
   width="12.8194in"
   height="14.5139in"
   viewBox="0 0 923 1045"
   version="1.1"
   id="svg3"
   sodipodi:docname="CSS3 logo blanc.svg"
   inkscape:version="1.1.2 (0a00cf5339, 2022-02-04, custom)"
   xmlns:inkscape="http://www.inkscape.org/namespaces/inkscape"
   xmlns:sodipodi="http://sodipodi.sourceforge.net/DTD/sodipodi-0.dtd"
   xmlns="http://www.w3.org/2000/svg"
   xmlns:svg="http://www.w3.org/2000/svg">
  <defs
     id="defs7" />
  <sodipodi:namedview
     id="namedview5"
     pagecolor="#ff91ff"
     bordercolor="#666666"
     borderopacity="1.0"
     inkscape:pageshadow="2"
     inkscape:pageopacity="0"
     inkscape:pagecheckerboard="0"
     inkscape:document-units="in"
     showgrid="false"
     inkscape:zoom="0.16518882"
     inkscape:cx="941.34702"
     inkscape:cy="-230.03979"
     inkscape:window-width="1600"
     inkscape:window-height="837"
     inkscape:window-x="-8"
     inkscape:window-y="-8"
     inkscape:window-maximized="1"
     inkscape:current-layer="svg3" />
  <path
     style="fill:#ffffff;stroke-width:2.1403"
     d="m 600.35375,1387.6337 c -4.12007,-1.1573 -72.98418,-20.414 -153.03135,-42.7928 -80.04716,-22.3787 -188.32962,-52.657 -240.62766,-67.2849 -52.29805,-14.628 -95.56289,-27.0719 -96.14409,-27.6531 -1.01211,-1.0121 -13.082041,-132.7465 -20.391629,-222.5596 C 86.325269,980.2379 83.920688,952.5368 58.946706,667.77316 49.552032,560.65122 39.424681,443.63039 36.441479,407.72688 33.458278,371.82337 26.694489,292.84635 21.410841,232.2224 16.127191,171.59844 9.5820849,95.270041 6.8661607,62.603734 L 1.9281167,3.2104479 H 615.33957 1228.751 l -4.8525,56.1828381 c -2.6689,30.900561 -7.3091,85.558434 -10.3116,121.461944 -3.0025,35.90351 -8.7945,102.84135 -12.871,148.75075 -4.0766,45.90941 -8.9002,101.7712 -10.7192,124.13732 -1.8191,22.36612 -8.0545,95.08277 -13.8565,161.59254 -5.8021,66.50978 -13.532,155.11814 -17.1776,196.90747 -3.6456,41.78933 -9.4284,108.72717 -12.8505,148.75076 -20.9896,245.48393 -24.8131,287.73093 -26.1632,289.08093 -0.6156,0.6157 -47.7083,14.1179 -104.6505,30.0051 -56.94217,15.8871 -168.67767,47.1463 -248.30115,69.4648 -79.62345,22.3185 -148.00599,40.4922 -151.9612,40.386 -3.95518,-0.1062 -10.56222,-1.1399 -14.6823,-2.2972 z M 764.91994,1082.693 c 79.58883,-21.9414 150.08808,-41.2831 156.66502,-42.9815 l 11.95806,-3.088 2.51554,-29.2535 c 15.49476,-180.19038 35.41267,-403.4806 38.16809,-427.88416 l 1.26871,-11.23656 H 840.66059 c -74.15912,0 -139.46324,-0.63441 -145.12027,-1.4098 l -10.28552,-1.40977 150.03028,-75.1059 c 82.51665,-41.30824 150.62198,-75.7121 151.34514,-76.45303 0.72316,-0.74093 3.19086,-22.89302 5.48379,-49.22687 2.2929,-26.33385 5.42294,-61.12282 6.95563,-77.30882 l 2.78666,-29.42911 H 615.32692 228.79747 l 1.58712,16.58731 c 0.87292,9.12303 3.58117,41.14724 6.01832,71.16493 2.43714,30.01769 4.94382,57.70136 5.57037,61.51927 l 1.13919,6.94163 151.33185,0.54941 151.33182,0.5494 -140.61569,70.37595 c -77.33864,38.70676 -142.59378,72.48153 -145.01146,75.055 l -4.39574,4.67908 6.4271,76.68741 c 3.53492,42.1781 6.42712,78.47135 6.42712,80.65172 0,3.83747 8.46563,3.96428 264.64737,3.96428 h 264.64738 l -1.33058,18.72761 c -0.73181,10.30019 -3.2689,46.17695 -5.63793,79.72613 -6.75042,95.59564 -6.29905,91.76703 -11.12326,94.3489 -3.50727,1.87702 -39.92958,12.19863 -154.05634,43.65755 -9.60996,2.64896 -11.81276,2.21305 -71.7,-14.18911 -33.98199,-9.30711 -71.73386,-19.44095 -83.89305,-22.51962 -17.68024,-4.47659 -22.43549,-6.50058 -23.74475,-10.1066 -0.90042,-2.47996 -2.80544,-25.21642 -4.23338,-50.52545 -1.42797,-25.30903 -3.1554,-51.07288 -3.83876,-57.25299 l -1.24246,-11.23657 h -81.06197 -81.06197 l 1.11835,8.02612 c 1.06972,7.67706 6.83194,71.24965 16.05016,177.07572 2.35679,27.05614 4.28507,49.85084 4.28507,50.65514 0,2.8032 19.09793,8.4596 158.20461,46.8565 151.35311,41.7772 152.86442,42.1775 160.46308,42.4969 2.81267,0.1184 70.23208,-17.7371 149.8209,-39.6786 z"
     id="path953"
     transform="matrix(0.75000263,0,0,0.75000263,0,-0.0022127)" />
</svg>
