<?xml version="1.0" encoding="UTF-8" standalone="no"?>
<svg
   width="7.43056in"
   height="7.43056in"
   viewBox="0 0 535 535"
   version="1.1"
   id="svg3"
   sodipodi:docname="git logo blanc.svg"
   inkscape:version="1.1.2 (0a00cf5339, 2022-02-04, custom)"
   xmlns:inkscape="http://www.inkscape.org/namespaces/inkscape"
   xmlns:sodipodi="http://sodipodi.sourceforge.net/DTD/sodipodi-0.dtd"
   xmlns="http://www.w3.org/2000/svg"
   xmlns:svg="http://www.w3.org/2000/svg">
  <defs
     id="defs7" />
  <sodipodi:namedview
     id="namedview5"
     pagecolor="#ffaeff"
     bordercolor="#666666"
     borderopacity="1.0"
     inkscape:pageshadow="2"
     inkscape:pageopacity="0"
     inkscape:pagecheckerboard="0"
     inkscape:document-units="in"
     showgrid="false"
     inkscape:zoom="0.45630813"
     inkscape:cx="332.01249"
     inkscape:cy="37.255527"
     inkscape:window-width="1600"
     inkscape:window-height="837"
     inkscape:window-x="-8"
     inkscape:window-y="-8"
     inkscape:window-maximized="1"
     inkscape:current-layer="svg3" />
  <path
     style="fill:#ffffff;stroke-width:1.09575"
     d="M 342.97,710.21075 C 331.34034,706.37186 330.52702,705.60448 200.70817,575.98376 130.29878,505.68184 58.15653,433.24425 40.392047,415.01135 1.5643332,375.15983 2.1915016,376.12671 2.1915016,356.11901 c 0,-21.99727 -10.3209745,-9.84982 114.2796984,-134.50341 82.68167,-82.71678 108.77155,-108.20539 110.75792,-108.20539 3.12486,0 10.15031,6.70515 49.69881,47.43296 l 28.50312,29.35306 -0.68266,6.25884 c -1.82101,16.69555 -1.95394,21.05589 -0.8052,26.4123 2.86457,13.35701 11.45909,25.81442 24.20617,35.08587 l 7.69826,5.59924 -0.0168,96.6878 c -0.009,53.17829 -0.37905,97.21344 -0.82182,97.85587 -0.44277,0.64244 -3.02393,2.68131 -5.73591,4.5308 -7.24533,4.94113 -16.84447,15.48222 -20.309,22.30188 -10.79515,21.24942 -6.57639,45.38617 11.00213,62.94641 17.91769,17.89906 47.7003,21.04062 67.8755,7.15972 16.71305,-11.49889 25.4529,-28.90061 24.4503,-48.68247 -0.85623,-16.89395 -7.7833,-29.73077 -22.25941,-41.24975 l -7.06775,-5.62398 v -95.34531 -95.34531 l 33.87905,33.05695 c 18.63349,18.18132 34.66263,34.70819 35.62033,36.72639 1.56814,3.30462 1.57863,4.35933 0.10541,10.60849 -4.33133,18.37294 0.84634,35.24063 15.27549,49.76416 15.78029,15.8835 36.37097,20.80649 56.17016,13.42963 38.31462,-14.27542 49.42904,-60.99128 21.30156,-89.53421 -13.75422,-13.95738 -29.35746,-18.89591 -50.94019,-16.12293 l -7.47715,0.96068 -37.75125,-37.75125 -37.75125,-37.75125 0.73454,-13.73991 c 0.65209,-12.19796 0.47217,-14.60367 -1.60324,-21.43649 -4.48249,-14.75764 -14.71445,-26.58765 -29.20708,-33.76872 -9.99704,-4.95351 -16.7957,-6.1142 -30.79591,-5.25759 l -11.47728,0.70225 -38.85576,-38.81369 C 275.28257,94.97788 261.33657,80.268755 261.33657,78.878726 c 0,-1.38494 12.37047,-14.518481 34.24221,-36.354425 C 334.80156,3.3657114 335.7206,2.7046676 352.14371,1.8385608 364.7704,1.1726668 371.56114,2.924756 381.08595,9.30599 c 5.94926,3.985755 45.87551,43.349577 161.34338,159.07058 84.3908,84.57579 156.01287,157.22578 159.16016,161.44442 8.32535,11.15934 10.45591,17.47587 9.79426,29.0374 -0.63905,11.1666 -3.3444,18.81038 -9.42982,26.64342 -2.42754,3.12467 -75.06988,76.26972 -161.42742,162.54456 -129.53297,129.40889 -158.06852,157.39978 -163.04036,159.92838 -5.34329,2.71752 -7.39333,3.10008 -18.07989,3.37393 -7.83692,0.20082 -13.58647,-0.19723 -16.43626,-1.13793 z"
     id="path916"
     transform="scale(0.74999957)" />
</svg>
