<?xml version="1.0" encoding="UTF-8" standalone="no"?>
<svg
   width="1024"
   height="1024"
   viewBox="0 0 1024 1024"
   fill="none"
   version="1.1"
   id="svg4"
   sodipodi:docname="github logo 82CAFF.svg"
   inkscape:version="1.1.2 (0a00cf5339, 2022-02-04, custom)"
   xmlns:inkscape="http://www.inkscape.org/namespaces/inkscape"
   xmlns:sodipodi="http://sodipodi.sourceforge.net/DTD/sodipodi-0.dtd"
   xmlns="http://www.w3.org/2000/svg"
   xmlns:svg="http://www.w3.org/2000/svg">
  <defs
     id="defs8" />
  <sodipodi:namedview
     id="namedview6"
     pagecolor="#88ffff"
     bordercolor="#666666"
     borderopacity="1.0"
     inkscape:pageshadow="2"
     inkscape:pageopacity="0"
     inkscape:pagecheckerboard="0"
     showgrid="false"
     inkscape:zoom="0.44953761"
     inkscape:cx="219.11403"
     inkscape:cy="431.55455"
     inkscape:window-width="1600"
     inkscape:window-height="837"
     inkscape:window-x="-8"
     inkscape:window-y="-8"
     inkscape:window-maximized="1"
     inkscape:current-layer="svg4" />
  <path
     style="fill:#82caff;stroke-width:1.57296;fill-opacity:1"
     d="M 339.76037,991.94896 C 272.37683,968.05521 204.78537,925.00437 151.87814,872.28161 72.947161,793.62584 24.289708,696.80292 6.8136644,583.61944 2.7194901,557.10353 1.1345165,494.07055 3.8372752,465.25107 16.705987,328.03219 85.101345,201.21336 192.96711,114.56609 269.67606,52.946705 357.85025,16.362238 457.73272,4.711833 483.34272,1.7246532 534.14501,1.3037014 559.97542,3.8646421 669.17903,14.691571 773.03497,60.549449 852.84203,133.1807 c 90.767,82.60573 144.99302,184.11163 164.54697,308.01615 2.903,18.39467 3.3543,27.9221 3.3543,70.80315 0,53.7121 -1.4723,68.65618 -10.9277,110.91375 -33.65804,150.42318 -133.89088,277.89894 -272.09517,346.04968 -50.51667,24.91058 -70.65551,30.9276 -83.4113,24.92137 -11.57382,-5.4497 -10.86972,1.20784 -13.28431,-125.6083 -1.46168,-76.76835 -1.67431,-78.66579 -11.15945,-99.58482 -2.50362,-5.52161 -7.69938,-14.4499 -11.54614,-19.84065 l -6.99411,-9.80138 18.36815,-2.8535 c 38.33127,-5.95481 65.59935,-13.95882 93.87048,-27.55388 80.59411,-38.75616 120.66067,-118.10155 116.76843,-231.24114 -1.59851,-46.46519 -12.27872,-77.92899 -39.1946,-115.46688 l -10.94525,-15.26463 3.59724,-14.46538 c 3.06367,-12.31968 3.60514,-18.66518 3.65038,-42.77874 0.0551,-29.31415 -1.27485,-39.11472 -8.68287,-63.98948 -4.37748,-14.69875 -5.3968,-15.44524 -21.09047,-15.44524 -28.23512,0 -70.47026,16.3931 -114.47685,44.43287 l -12.1743,7.75713 -16.92554,-3.9736 c -39.49428,-9.27202 -78.00028,-12.8301 -124.67364,-11.52022 -41.74994,1.17171 -70.53104,4.79198 -102.64135,12.9109 l -10.62293,2.68595 -16.90395,-10.25243 c -24.94979,-15.13231 -50.34554,-27.33978 -71.80918,-34.51791 -16.0477,-5.36688 -21.66814,-6.48783 -35.92362,-7.16477 l -16.89949,-0.80248 -3.26926,7.39071 c -1.79809,4.06489 -5.13823,14.25155 -7.42254,22.63702 -3.89606,14.30209 -4.15075,17.34078 -4.11248,49.06507 0.0359,29.70688 0.45271,35.30701 3.42871,46.05934 l 3.38793,12.24059 -10.18897,13.71333 c -12.41544,16.70993 -24.17795,39.10845 -30.593,58.25615 -6.92241,20.66199 -9.74408,42.05933 -9.68315,73.42951 0.28017,144.25028 71.88071,225.62922 215.27478,244.67461 l 14.48846,1.92435 -5.32462,6.22062 c -9.45593,11.04713 -18.43032,31.01584 -23.87427,53.12205 -1.13933,4.62647 -2.73654,6.17565 -10.00469,9.70392 -19.83297,9.62772 -58.13742,12.03384 -78.8449,4.9527 -20.64966,-7.06139 -38.02167,-21.16311 -54.14846,-43.95501 -30.7988,-43.52775 -51.91577,-57.90913 -84.85987,-57.79248 -17.44203,0.0618 -24.38095,2.88939 -24.38095,9.9353 0,6.25362 5.85922,12.7301 22.90874,25.32215 21.40668,15.81006 32.90418,31.36635 52.26038,70.709 10.67547,21.69856 13.23348,25.62018 23.25029,35.64454 8.96404,8.97082 14.26092,12.70454 26.02154,18.34239 19.17082,9.19019 30.72615,11.8569 56.54007,13.04816 18.72253,0.86403 52.72065,-0.97924 64.42854,-3.49309 l 3.95948,-0.85016 -0.54824,49.26851 c -0.61003,54.82004 -0.99787,57.04075 -11.1425,63.79768 -7.28204,4.85029 -16.80803,4.56684 -32.40641,-0.96422 z"
     id="path901" />
</svg>
