<?xml version="1.0" encoding="UTF-8" standalone="no"?>
<svg
   width="8.33333in"
   height="8.06944in"
   viewBox="0 0 600 581"
   version="1.1"
   id="svg3"
   sodipodi:docname="home logo bleu.svg"
   inkscape:version="1.1.2 (0a00cf5339, 2022-02-04, custom)"
   xmlns:inkscape="http://www.inkscape.org/namespaces/inkscape"
   xmlns:sodipodi="http://sodipodi.sourceforge.net/DTD/sodipodi-0.dtd"
   xmlns="http://www.w3.org/2000/svg"
   xmlns:svg="http://www.w3.org/2000/svg">
  <defs
     id="defs7" />
  <sodipodi:namedview
     id="namedview5"
     pagecolor="#ffffff"
     bordercolor="#666666"
     borderopacity="1.0"
     inkscape:pageshadow="2"
     inkscape:pageopacity="0.0"
     inkscape:pagecheckerboard="0"
     inkscape:document-units="in"
     showgrid="false"
     inkscape:zoom="0.10504524"
     inkscape:cx="585.46203"
     inkscape:cy="-266.55182"
     inkscape:window-width="1600"
     inkscape:window-height="837"
     inkscape:window-x="-8"
     inkscape:window-y="-8"
     inkscape:window-maximized="1"
     inkscape:current-layer="svg3" />
  <path
     style="fill:#4f8fee;stroke-width:1.18996;fill-opacity:1"
     d="m 128.90182,771.18538 c -10.79727,-3.41314 -17.56501,-9.4895 -22.6303,-20.31842 l -3.33968,-7.13978 -0.31982,-180.57696 c -0.1759,-99.31733 -0.72626,-180.57696 -1.22301,-180.57696 -0.49676,0 -5.17902,3.88226 -10.405033,8.62724 -22.752463,20.65819 -26.800694,22.88647 -41.600492,22.89826 -9.947447,0.008 -11.244908,-0.28166 -18.230014,-4.06891 C 17.564953,402.6623 3.7225315,384.84375 1.6840061,372.09551 0.51364143,364.77645 4.711862,352.46314 10.973692,344.849 13.773641,341.44437 39.358042,317.36876 67.827919,291.34761 96.297795,265.32648 152.25583,214.00803 192.1791,177.30662 287.15693,89.99364 361.7616,21.943474 370.67363,14.493997 c 3.92688,-3.282439 10.49867,-7.540941 14.604,-9.4633369 6.64148,-3.1099997 8.47778,-3.4487211 16.65949,-3.0729993 11.30101,0.5189667 19.15933,4.1514592 31.62873,14.6203112 27.43112,23.030185 349.9242,306.088338 354.15823,310.851238 9.4819,10.66631 12.82133,23.31586 9.09584,34.45445 -5.48748,16.40658 -31.30627,40.65894 -45.56072,42.79653 -7.21741,1.08232 -11.7396,-0.89663 -22.41794,-9.81022 l -9.50833,-7.93696 -0.59675,177.80211 c -0.55394,165.04716 -0.7456,178.23779 -2.6719,183.87561 -2.93463,8.58898 -9.91977,16.02902 -18.97389,20.20958 l -7.50655,3.46599 -80.51081,0.32166 c -79.76053,0.31865 -80.57426,0.29791 -87.3205,-2.22618 -12.75719,-4.77308 -20.59113,-14.8488 -23.14015,-29.762 -0.89723,-5.2493 -1.19313,-45.26207 -0.95604,-129.27807 l 0.34338,-121.67581 -3.56989,-0.5676 c -6.32917,-1.00631 -30.6106,-1.21795 -104.98347,-0.91503 l -72.85447,0.29674 -0.32829,128.21857 -0.32829,128.21856 -2.81221,6.22 c -3.29006,7.27689 -11.012,14.83121 -18.94068,18.52949 -5.58898,2.60694 -5.99227,2.62081 -82.9639,2.85461 -61.28444,0.18614 -78.37959,-0.0913 -82.3167,-1.33586 z"
     id="path972"
     transform="scale(0.75000034)" />
</svg>
