<?xml version="1.0" encoding="UTF-8" standalone="no"?>
<svg
   width="12.8333in"
   height="14.5139in"
   viewBox="0 0 924 1045"
   version="1.1"
   id="svg3"
   sodipodi:docname="HTML5 logo blanc.svg"
   inkscape:version="1.1.2 (0a00cf5339, 2022-02-04, custom)"
   xmlns:inkscape="http://www.inkscape.org/namespaces/inkscape"
   xmlns:sodipodi="http://sodipodi.sourceforge.net/DTD/sodipodi-0.dtd"
   xmlns="http://www.w3.org/2000/svg"
   xmlns:svg="http://www.w3.org/2000/svg">
  <defs
     id="defs7" />
  <sodipodi:namedview
     id="namedview5"
     pagecolor="#ffff67"
     bordercolor="#666666"
     borderopacity="1.0"
     inkscape:pageshadow="2"
     inkscape:pageopacity="0"
     inkscape:pagecheckerboard="0"
     inkscape:document-units="in"
     showgrid="false"
     inkscape:zoom="0.5"
     inkscape:cx="487"
     inkscape:cy="578"
     inkscape:window-width="1600"
     inkscape:window-height="837"
     inkscape:window-x="-8"
     inkscape:window-y="-8"
     inkscape:window-maximized="1"
     inkscape:current-layer="svg3" />
  <path
     style="fill:#ffffff;stroke-width:2.1403"
     d="m 602.49405,1390.2048 c -4.12007,-0.862 -69.61321,-18.9863 -145.5403,-40.2762 -75.92709,-21.29 -183.31658,-51.395 -238.64329,-66.9 -55.32672,-15.5051 -102.20979,-29.05 -104.1846,-30.0999 -2.37362,-1.2619 -3.99703,-5.7199 -4.78983,-13.1531 C 107.8119,1225.4855 85.718115,970.08796 81.331175,916.0478 79.515511,893.68168 69.879452,782.43966 59.917712,668.84331 49.955971,555.24696 39.377975,432.9289 36.411053,397.02539 33.44413,361.12188 27.693606,294.18404 23.632107,248.27464 19.57061,202.36523 15.228354,152.28224 13.982649,136.97911 12.736944,121.67597 9.8100059,87.003138 7.478342,59.92836 5.146678,32.853583 3.2325394,9.497575 3.2247006,8.0261197 3.2133313,5.8920134 127.26882,5.3507465 616.40599,5.3507465 c 337.25755,0 613.19241,0.7223507 613.18841,1.6052239 0,0.8828732 -3.7956,44.9462706 -8.426,97.9186596 -4.6303,52.97239 -9.487,109.79732 -10.7926,126.27762 -1.3055,16.4803 -6.6055,78.1209 -11.7777,136.97911 -5.1723,58.85821 -10.4732,120.01724 -11.78,135.90896 -1.3068,15.89171 -6.1661,72.23507 -10.7985,125.20747 -4.6324,52.97239 -8.9597,103.05537 -9.6163,111.29552 -0.6566,8.24015 -2.6068,30.39224 -4.3339,49.22687 -4.8833,53.25634 -19.6749,223.39172 -24.3762,280.37912 -9.858,119.4974 -15.5978,179.9005 -17.2604,181.6414 -1.3904,1.4558 -412.00636,117.635 -481.4217,136.2128 -16.51771,4.4206 -23.80804,4.8601 -36.51705,2.2013 z m 38.13751,-270.7428 c 59.75023,-15.182 292.41449,-80.5549 293.61592,-82.4989 0.76916,-1.2445 2.4887,-15.4757 3.82121,-31.6249 2.54622,-30.85869 11.28119,-132.74446 27.26254,-317.99353 5.26612,-61.04268 9.57478,-112.32959 9.57478,-113.9709 0,-2.53664 -41.408,-2.9842 -276.09852,-2.9842 -219.44289,0 -276.10201,-0.54898 -276.11549,-2.67537 -0.009,-1.47145 -1.45418,-21.93806 -3.21075,-45.48134 -1.75656,-23.54329 -3.70023,-51.47419 -4.31925,-62.06866 -0.61902,-10.59448 -1.56725,-24.80071 -2.10719,-31.56941 l -0.98171,-12.30671 h 288.71536 288.71537 l 1.45574,-18.72762 c 0.80067,-10.30018 3.77436,-44.25067 6.60818,-75.44552 2.83385,-31.19485 5.15465,-57.92183 5.15725,-59.39329 0,-2.13043 -78.68415,-2.67537 -386.31901,-2.67537 -212.47814,0 -386.32389,0.39899 -386.32389,0.88666 0,0.48765 6.24496,72.96351 13.87767,161.05747 7.63274,88.09394 16.30047,189.06484 19.26168,224.37976 2.96119,35.31493 5.92504,68.30228 6.5863,73.30523 l 1.20232,9.09627 h 263.12556 263.12559 v 8.66179 c 0,11.0345 -10.3456,164.96388 -11.88073,176.77021 l -1.15169,8.85739 -18.63229,4.66801 c -10.24777,2.56742 -48.17544,12.73844 -84.28374,22.60226 l -65.65145,17.93427 -76.6784,-21.29015 c -42.17313,-11.70959 -77.75245,-21.29154 -79.06516,-21.29323 -1.31271,-0.002 -4.77132,-1.8788 -7.68581,-4.17133 -5.01752,-3.94678 -5.43017,-5.96525 -7.76674,-37.9903 -1.35722,-18.60213 -3.09641,-45.13888 -3.86486,-58.97056 l -1.39719,-25.14851 h -81.31281 -81.31281 l 1.33477,13.37687 c 1.53494,15.38312 15.5152,179.67203 17.64923,207.40491 l 1.42535,18.5235 12.02895,3.3128 c 90.91207,25.0382 285.8809,78.4445 292.40806,80.0972 13.01193,3.2946 16.80332,3.0379 39.20766,-2.6548 z"
     id="path898"
     transform="matrix(0.75000193,0,0,0.75000193,0,-0.00172752)" />
</svg>
