<?xml version="1.0" encoding="UTF-8" standalone="no"?>
<svg
   width="12.8194in"
   height="14.5139in"
   viewBox="0 0 923 1045"
   version="1.1"
   id="svg3"
   sodipodi:docname="JS logo blanc.svg"
   inkscape:version="1.1.2 (0a00cf5339, 2022-02-04, custom)"
   xmlns:inkscape="http://www.inkscape.org/namespaces/inkscape"
   xmlns:sodipodi="http://sodipodi.sourceforge.net/DTD/sodipodi-0.dtd"
   xmlns="http://www.w3.org/2000/svg"
   xmlns:svg="http://www.w3.org/2000/svg">
  <defs
     id="defs7" />
  <sodipodi:namedview
     id="namedview5"
     pagecolor="#ff84ff"
     bordercolor="#666666"
     borderopacity="1.0"
     inkscape:pageshadow="2"
     inkscape:pageopacity="0"
     inkscape:pagecheckerboard="0"
     inkscape:document-units="in"
     showgrid="false"
     inkscape:zoom="0.33037763"
     inkscape:cx="712.82065"
     inkscape:cy="508.509"
     inkscape:window-width="1600"
     inkscape:window-height="837"
     inkscape:window-x="-8"
     inkscape:window-y="-8"
     inkscape:window-maximized="1"
     inkscape:current-layer="svg3" />
  <path
     style="fill:#ffffff;stroke-width:2.1403"
     d="M 362.78866,1321.3363 C 224.67658,1282.6668 111.21713,1250.5694 110.65654,1250.0088 109.09977,1248.452 89.088865,1024.4433 70.594571,801.54182 68.787673,779.76428 62.542333,708.49234 56.716038,643.15973 50.889743,577.82711 42.722016,483.43994 38.565537,433.41046 34.409056,383.38098 30.067627,332.81643 28.917919,321.04479 27.768208,309.27315 22.935455,253.41135 18.178466,196.90747 13.421477,140.40359 7.7371169,74.428883 5.5465547,50.297017 2.848704,20.576715 2.2591738,5.557736 3.7192985,3.7455225 5.4346871,1.6164922 130.79715,1.0701493 617.60364,1.0701493 h 611.72876 l -0.9248,6.9559704 c -0.5086,3.8257833 -3.8732,42.1103743 -7.4769,85.0768693 -3.6037,42.966491 -11.3007,133.019561 -17.1044,200.117921 -5.8038,67.09836 -11.0754,128.25739 -11.7148,135.90896 -0.6393,7.65156 -5.4138,62.55022 -10.6098,121.99702 -5.196,59.44679 -10.9889,126.8662 -12.873,149.8209 -1.8841,22.9547 -7.2114,84.5953 -11.8384,136.97911 -4.627,52.38381 -11.3586,130.39769 -14.9591,173.3642 -11.8409,141.304 -20.6259,237.5276 -21.7923,238.694 -0.6312,0.6312 -29.9325,9.202 -65.1141,19.0463 -146.56635,41.0114 -403.52047,112.5711 -421.57851,117.4064 l -19.44479,5.2067 z M 569.31942,690.24629 V 257.90598 H 500.2948 431.27017 v 342.67676 c 0,273.67063 -0.53996,342.46957 -2.68137,341.64782 -1.47475,-0.56592 -40.24091,-11.35766 -86.14702,-23.98166 -45.90611,-12.62399 -96.84173,-26.71103 -113.19027,-31.30452 -16.34854,-4.59351 -30.55478,-8.35181 -31.56941,-8.35181 -1.01463,0 -1.83218,32.50579 -1.81679,72.23508 l 0.028,72.23505 165.31007,44.8895 c 175.2798,47.5968 199.79264,54.1084 204.9056,54.4315 2.84381,0.1798 3.21044,-49.1716 3.21044,-432.13741 z m 108.8463,428.99161 c 20.22814,-5.1509 302.01441,-82.65 302.66144,-83.2403 0.6925,-0.6319 4.43158,-39.76694 14.32314,-149.91398 4.12284,-45.90941 11.7879,-130.16447 17.0335,-187.23347 5.2456,-57.06899 9.3305,-103.96873 9.0775,-104.22165 -0.2529,-0.25292 -49.92685,7.19217 -110.38661,16.54463 -60.45973,9.35249 -110.27473,17.00451 -110.69998,17.00451 -0.42526,0 -0.77319,-52.97239 -0.77319,-117.71643 V 392.74479 h 118.7458 118.74578 l 0.9601,-4.81567 c 0.9992,-5.01194 9.9693,-119.70564 9.8761,-126.27762 -0.05,-3.53917 -10.7239,-3.74552 -193.75016,-3.74552 H 660.28211 v 264.36765 264.36765 l 4.81568,-1.05919 c 2.64862,-0.58255 27.44933,-4.48072 55.11269,-8.66261 27.66335,-4.18188 74.71185,-11.49351 104.55219,-16.24805 29.84036,-4.75455 54.57021,-8.32959 54.95523,-7.94458 1.26222,1.26222 -16.61872,169.6979 -18.2013,171.45325 -0.84862,0.94128 -15.89405,5.43105 -33.43424,9.97728 -37.17352,9.63496 -154.21369,41.91597 -159.93807,44.11275 -2.15023,0.82515 -4.79885,3.83946 -5.88582,6.69845 -2.95062,7.76068 -2.58253,137.61802 0.39009,137.61802 1.30153,0 8.28426,-1.5069 15.51716,-3.3487 z"
     id="path898"
     transform="matrix(0.75000263,0,0,0.75000263,0,-0.0022127)" />
</svg>
