<?xml version="1.0" encoding="UTF-8" standalone="no"?>
<svg
   width="282.287mm"
   height="282.287mm"
   viewBox="0 0 800 800"
   version="1.1"
   id="svg3"
   sodipodi:docname="linkedin logo 82CAFF.svg"
   inkscape:version="1.1.2 (0a00cf5339, 2022-02-04, custom)"
   xmlns:inkscape="http://www.inkscape.org/namespaces/inkscape"
   xmlns:sodipodi="http://sodipodi.sourceforge.net/DTD/sodipodi-0.dtd"
   xmlns="http://www.w3.org/2000/svg"
   xmlns:svg="http://www.w3.org/2000/svg">
  <defs
     id="defs7" />
  <sodipodi:namedview
     id="namedview5"
     pagecolor="#ffffff"
     bordercolor="#666666"
     borderopacity="1.0"
     inkscape:pageshadow="2"
     inkscape:pageopacity="0.0"
     inkscape:pagecheckerboard="0"
     inkscape:document-units="mm"
     showgrid="false"
     inkscape:zoom="0.4314571"
     inkscape:cx="582.90848"
     inkscape:cy="391.69596"
     inkscape:window-width="1600"
     inkscape:window-height="837"
     inkscape:window-x="-8"
     inkscape:window-y="-8"
     inkscape:window-maximized="1"
     inkscape:current-layer="svg3" />
  <path
     style="fill:#82caff;stroke-width:1.63888"
     d="m 60.012112,1060.9984 c -17.928201,-4.2288 -40.305097,-22.9615 -49.237676,-41.219 -2.3968449,-4.899 -5.0822912,-13.6296 -5.9676579,-19.4013 C 3.7733973,993.64146 3.3581762,823.5249 3.6471112,525.26132 L 4.0972022,60.638592 10.041042,48.346986 C 19.953617,27.848205 33.592112,15.36602 54.554268,7.607713 L 64.039311,4.0972022 531.4686,4.1372663 c 309.03527,0.026488 469.8647,0.6015278 474.6163,1.6969741 21.034,4.8491956 39.8385,20.4581436 50.4065,41.8407826 l 6.3228,12.793096 0.4294,466.280341 c 0.2873,312.02659 -0.1242,469.28426 -1.2438,475.36064 -3.9896,21.6519 -20.9408,43.1824 -42.3147,53.7461 l -12.4225,6.1396 -470.44394,0.2522 c -280.01337,0.1501 -473.019481,-0.3553 -476.806548,-1.2486 z M 317.53317,906.61412 c 1.62426,-1.05123 2.0486,-53.54282 2.0486,-253.41196 V 401.11609 l -5.1215,-1.0243 c -2.81683,-0.56336 -38.95415,-1.0243 -80.30517,-1.0243 h -75.18366 v 254.90622 254.90624 l 78.25657,-0.46998 c 43.04111,-0.25849 79.17843,-1.06662 80.30516,-1.79585 z M 575.67546,763.30877 c 0.57738,-141.94153 0.67691,-145.82631 4.12539,-161.02005 9.144,-40.28776 30.84806,-64.05046 65.09877,-71.27342 41.6685,-8.78725 74.66804,5.59412 90.21291,39.31524 11.5296,25.01093 11.08296,17.99947 11.7453,184.3741 0.54584,137.11417 0.82899,150.13306 3.30596,152.0062 2.07958,1.57262 20.93531,2.0486 81.1536,2.0486 h 78.44457 L 909.11613,741.18387 C 908.4366,564.86337 908.08863,555.98619 900.5543,522.75799 880.40159,433.8796 829.79431,392.06637 735.85751,386.68063 c -33.65135,-1.92934 -70.43998,4.01295 -95.67116,15.45331 -24.16109,10.95516 -48.65362,30.73155 -63.0448,50.90528 l -7.63045,10.69643 -0.44453,-32.3812 -0.44451,-32.38119 -76.03778,0.45683 c -41.82077,0.25126 -76.65182,1.07134 -77.40231,1.82239 -1.78415,1.78546 -2.64106,492.99333 -0.87192,499.82233 1.03119,3.98048 2.5012,5.4731 6.16673,6.26158 2.64704,0.56938 38.51651,1.1225 79.70992,1.22916 l 74.89711,0.19389 z M 262.80382,330.91434 c 69.65285,-17.96981 93.0574,-104.24591 42.4887,-156.626 -28.1173,-29.12444 -72.7674,-35.92675 -110.51826,-16.83711 -12.15006,6.14396 -32.41055,26.78737 -38.87272,39.60736 -23.35266,46.32833 -4.5744,104.76643 40.76416,126.85841 19.34686,9.42709 45.85106,12.2312 66.13812,6.99734 z"
     id="path861"
     transform="scale(0.74982789)" />
</svg>
