<?xml version="1.0" encoding="UTF-8" standalone="no"?>
<svg
   width="8.25in"
   height="8.25in"
   viewBox="0 0 594 594"
   version="1.1"
   id="svg3"
   sodipodi:docname="logo web blanc.svg"
   inkscape:version="1.1.2 (0a00cf5339, 2022-02-04, custom)"
   xmlns:inkscape="http://www.inkscape.org/namespaces/inkscape"
   xmlns:sodipodi="http://sodipodi.sourceforge.net/DTD/sodipodi-0.dtd"
   xmlns="http://www.w3.org/2000/svg"
   xmlns:svg="http://www.w3.org/2000/svg">
  <defs
     id="defs7" />
  <sodipodi:namedview
     id="namedview5"
     pagecolor="#00ffff"
     bordercolor="#666666"
     borderopacity="1.0"
     inkscape:pageshadow="2"
     inkscape:pageopacity="0"
     inkscape:pagecheckerboard="0"
     inkscape:document-units="in"
     showgrid="false"
     inkscape:zoom="0.58122035"
     inkscape:cx="689.06741"
     inkscape:cy="323.45736"
     inkscape:window-width="1600"
     inkscape:window-height="837"
     inkscape:window-x="-8"
     inkscape:window-y="-8"
     inkscape:window-maximized="1"
     inkscape:current-layer="svg3" />
  <path
     style="fill:#ffffff;fill-opacity:1;stroke-width:2.43318"
     d="M 338.80028,785.68731 C 195.05515,763.24811 77.056539,667.941 27.291877,534.08295 2.0065041,466.06981 -3.9927724,383.41564 11.24964,313.06332 32.95449,212.88319 92.076161,126.0146 177.39128,68.948242 285.94555,-3.6625233 425.3505,-17.740417 545.63578,31.760842 642.85815,71.770972 723.52331,153.7321 762.42541,252.03345 c 34.20478,86.43175 35.93242,186.01637 4.76314,274.55864 -50.23772,142.70979 -178.06545,244.03598 -328.51201,260.40412 -31.07507,3.38088 -73.38568,2.82639 -99.87626,-1.3089 z m 41.99235,-140.04565 v -97.69474 l -23.72351,1.48888 c -35.60228,2.23442 -96.21038,14.06351 -107.35877,20.95362 -2.57637,1.59227 -1.19119,6.43459 6.59163,23.04268 21.6207,46.13737 51.75429,89.54529 87.59418,126.1808 18.47574,18.88591 24.60392,23.72351 30.05237,23.72351 h 6.8441 z m 58.16628,84.13473 c 17.44811,-16.15388 45.3807,-50.28621 64.56941,-78.90081 16.90965,-25.21602 41.46055,-73.728 39.67158,-78.39 -3.00203,-7.82318 -83.81245,-23.80355 -120.3711,-23.80355 h -12.83802 v 95.70506 c 0,52.6378 0.72996,96.43504 1.62213,97.32719 4.60803,4.60805 13.8164,0.58815 27.346,-11.93789 z m -123.90688,4.43559 c -0.0246,-1.00369 -8.39941,-12.22673 -18.61066,-24.94009 -26.43181,-32.90844 -45.37805,-62.4204 -62.09213,-96.71889 -10.51383,-21.57516 -15.72536,-29.80646 -18.87152,-29.80646 -3.8819,0 -31.55764,13.5887 -67.64158,33.21176 -7.01455,3.81464 -12.76294,8.47477 -12.7742,10.35581 -0.0302,5.04588 32.72589,35.83521 55.41198,52.08491 26.67748,19.10869 64.50872,38.50991 95.4247,48.93726 27.40933,9.24462 29.22197,9.67213 29.15341,6.8757 z m 184.08591,-4.42033 C 546.26016,716.1435 600.4272,684.04904 637.49309,647.81493 l 21.89861,-21.40719 -6.08294,-4.66022 c -9.49099,-7.27112 -72.40486,-39.00718 -77.21122,-38.94818 -3.0532,0.0375 -7.67858,7.27017 -15.94945,24.9401 -15.92968,34.0323 -36.09712,65.93267 -62.36098,98.6412 -12.15527,15.13793 -22.10047,28.00337 -22.10047,28.58986 0,1.59758 0.23017,1.54675 23.4513,-5.17885 z M 142.1835,586.50396 c 12.79999,-7.30117 32.85337,-17.69382 44.56304,-23.09482 11.70968,-5.40098 21.29033,-10.25284 21.29033,-10.78191 0,-0.52904 -3.72607,-15.59352 -8.28015,-33.47658 -7.51566,-29.51267 -9.47758,-41.23335 -15.42122,-92.12761 l -1.84702,-15.81567 -67.85852,-0.64737 -67.858516,-0.64739 1.66777,20.55435 c 3.294825,40.60693 19.466934,92.99158 41.002171,132.81415 14.236025,26.32498 21.396995,36.49769 25.692175,36.49769 2.07747,0 14.24994,-5.97367 27.04994,-13.27484 z m 547.1297,-0.10765 c 28.27685,-42.63536 54.02321,-119.6412 54.02321,-161.58036 v -14.82517 h -65.20922 c -47.47404,0 -66.00333,0.79412 -68.12903,2.91982 -1.6059,1.6059 -2.91982,8.3087 -2.91982,14.8951 0,23.72404 -14.50825,100.22729 -22.94586,120.99558 -1.17483,2.89171 4.00786,6.40203 22.26491,15.08043 13.08788,6.22128 33.10307,16.79417 44.47819,23.49534 11.37511,6.70115 22.86157,11.95918 25.52544,11.68455 2.79725,-0.28843 8.25218,-5.63904 12.91218,-12.66529 z M 267.20883,535.09072 c 32.98124,-8.37658 58.98003,-12.8285 86.01782,-14.7293 12.27279,-0.8628 23.46636,-2.28081 24.87459,-3.15114 2.78504,-1.72125 4.19478,-100.3853 1.4967,-104.75089 -0.98252,-1.58972 -30.49436,-2.46861 -82.89362,-2.46861 h -81.36791 v 18.39107 c 0,21.89256 3.20157,44.44251 11.13719,78.4437 6.17256,26.44713 9.32843,34.55694 13.44756,34.55694 1.38321,0 13.66267,-2.8313 27.28767,-6.29177 z m 290.62548,0.51104 c 7.34339,-16.11696 20.04587,-88.34885 20.04587,-113.98955 v -11.62143 h -79.23829 c -49.9679,0 -80.97683,0.93043 -83.9447,2.51878 -4.42284,2.36702 -4.70641,5.58573 -4.70641,53.41971 v 50.9009 l 7.90784,1.23053 c 4.34931,0.67679 16.66728,1.8955 27.37327,2.70828 20.87352,1.58466 70.86636,10.96104 88.81106,16.65691 16.1496,5.12611 20.74546,4.77315 23.75136,-1.82413 z M 184.45902,364.97696 c 5.98795,-44.36261 12.41064,-79.3547 18.63473,-101.52581 3.85426,-13.72941 6.81693,-25.04306 6.58372,-25.14144 -33.69471,-14.21462 -65.14295,-30.13753 -88.81933,-44.97111 -5.33576,-3.34293 -6.08821,-3.05253 -12.86599,4.96555 -11.30505,13.37381 -32.963752,57.88481 -43.465769,89.32689 -9.38254,28.09048 -17.050137,65.85695 -17.069593,84.07566 l -0.0098,9.16291 67.520732,-0.64679 67.52074,-0.64678 z m 196.33361,-37.26911 v -53.08481 l -37.10599,-4.06448 c -29.95089,-3.28073 -78.03505,-12.76144 -101.96739,-20.10485 -3.0618,-0.9395 -4.96247,1.56585 -7.89952,10.41262 -8.46973,25.51194 -16.31064,66.45642 -17.72399,92.55302 l -1.4825,27.37328 h 83.08971 83.08968 z m 197.04006,42.74376 c -0.0898,-19.52162 -7.00437,-62.57851 -14.75239,-91.86122 -6.30549,-23.8308 -8.48959,-29.09187 -11.68494,-28.14697 -36.56132,10.81176 -105.9704,23.25494 -129.84697,23.27808 l -11.55761,0.0112 v 51.90782 c 0,28.54933 0.72996,52.63781 1.62213,53.52996 0.89215,0.89217 38.66727,1.62213 83.9447,1.62213 h 82.32257 l -0.0474,-10.34102 z m 165.50372,-4.48415 c 0,-30.71573 -14.96221,-85.69297 -33.37939,-122.64949 -11.7561,-23.59019 -27.86489,-49.5187 -31.67262,-50.97987 -1.7471,-0.67042 -15.47213,5.77629 -30.50006,14.32604 -15.02792,8.54974 -35.88655,19.18904 -46.35248,23.64287 -16.01381,6.81476 -18.85437,8.87268 -17.92704,12.9876 0.60606,2.68935 4.39646,17.48143 8.42311,32.87129 7.51614,28.72675 15.15041,75.02972 15.15041,91.88959 0,5.22109 0.72995,10.22286 1.62213,11.11501 0.89215,0.89217 31.55021,1.62213 68.12903,1.62213 h 66.50691 z M 380.79263,145.99078 c 0,-89.581297 -0.36174,-98.543775 -3.97752,-98.543775 -6.15359,0 -47.99498,42.316978 -67.9581,68.730565 -25.15572,33.284 -59.45609,93.22637 -59.45609,103.9038 0,6.21968 85.33276,23.45403 119.8341,24.20248 l 11.55761,0.25071 z m 98.54378,91.32593 c 28.3371,-5.0891 64.47926,-14.50743 64.47926,-16.80271 0,-4.96043 -30.92216,-62.07355 -44.73255,-82.62085 -26.98379,-40.146892 -74.81454,-90.446145 -86.00738,-90.446145 -2.44053,0 -3.08496,20.65071 -3.08496,98.857615 v 98.85763 l 22.50692,-1.73787 c 12.3788,-0.95583 33.45622,-3.70428 46.83871,-6.10767 z M 231.90055,187.75475 c 17.71902,-38.26989 55.1541,-93.608576 82.91213,-122.565454 5.41526,-5.649164 6.72664,-10.442752 2.85679,-10.442752 -1.2615,0 -14.09524,3.865906 -28.51937,8.590903 -31.28067,10.246791 -61.75875,25.10813 -89.91828,43.844833 -21.7786,14.49098 -64.19035,53.00676 -64.19035,58.29378 0,5.15403 72.47121,44.3775 82.72812,44.7748 2.28803,0.0886 7.56031,-8.30469 14.13096,-22.49611 z m 359.05785,16.1632 c 21.76236,-9.56759 67.21671,-35.33645 67.21671,-38.10631 0,-4.21466 -37.48043,-38.85472 -57.6758,-53.30496 -28.16123,-20.149996 -61.36834,-36.879924 -95.35373,-48.039729 -16.28109,-5.346224 -30.11724,-9.720407 -30.74705,-9.720407 -3.71668,0 1.09807,7.453107 19.41929,30.060475 27.14742,33.498481 49.75331,68.335251 64.84672,99.931931 6.76032,14.1521 13.43876,25.7311 14.84101,25.7311 1.40224,0 9.25603,-2.94845 17.45285,-6.5521 z"
     id="path4326"
     transform="scale(0.75)" />
</svg>
