<?xml version="1.0" encoding="UTF-8" standalone="no"?>
<svg
   width="3.61111in"
   height="3.61111in"
   viewBox="0 0 260 260"
   version="1.1"
   id="svg3"
   sodipodi:docname="mySQL logo blanc.svg"
   inkscape:version="1.1.2 (0a00cf5339, 2022-02-04, custom)"
   xmlns:inkscape="http://www.inkscape.org/namespaces/inkscape"
   xmlns:sodipodi="http://sodipodi.sourceforge.net/DTD/sodipodi-0.dtd"
   xmlns="http://www.w3.org/2000/svg"
   xmlns:svg="http://www.w3.org/2000/svg">
  <defs
     id="defs7" />
  <sodipodi:namedview
     id="namedview5"
     pagecolor="#ffc2ff"
     bordercolor="#666666"
     borderopacity="1.0"
     inkscape:pageshadow="2"
     inkscape:pageopacity="0"
     inkscape:pagecheckerboard="0"
     inkscape:document-units="in"
     showgrid="false"
     inkscape:zoom="0.66393268"
     inkscape:cx="26.358094"
     inkscape:cy="-70.790309"
     inkscape:window-width="1600"
     inkscape:window-height="837"
     inkscape:window-x="-8"
     inkscape:window-y="-8"
     inkscape:window-maximized="1"
     inkscape:current-layer="svg3" />
  <path
     style="fill:#ffffff;stroke-width:0.532514"
     d="m 336.50456,344.25763 c -1.16293,-0.57537 -4.74392,-3.46549 -7.95777,-6.4225 -5.53509,-5.09273 -9.48398,-8.18325 -24.77781,-19.39181 -7.4357,-5.44948 -16.34196,-13.70886 -20.0043,-18.55132 -5.84625,-7.73011 -8.94255,-17.08881 -6.93694,-20.96725 1.29588,-2.50596 4.14113,-3.55167 19.25,-7.07493 7.61494,-1.77574 17.61955,-4.10733 22.23245,-5.1813 4.6129,-1.07398 8.3871,-2.11787 8.3871,-2.31976 0,-0.72637 -9.98261,-9.84959 -16.24168,-14.84347 -15.31068,-12.2158 -29.545,-20.91507 -45.44699,-27.77481 -13.16729,-5.68006 -15.89245,-7.17747 -17.78918,-9.77477 -2.25422,-3.08683 -5.41905,-9.56055 -11.21339,-22.93723 C 219.63874,151.23329 206.12543,127.52632 187.88524,104.59813 181.28741,96.304566 165.2262,80.029157 157.86983,74.182431 147.04556,65.579472 133.44087,57.04239 121.82116,51.561527 108.27101,45.170095 105.11228,44.167262 84.137198,39.597592 62.099461,34.796411 61.773984,34.680864 49.790051,27.404052 35.104622,18.486854 29.535847,15.750396 23.763413,14.614739 c -5.720678,-1.125475 -9.11928,1.068628 -9.11928,5.887314 0,3.528652 2.336658,7.869804 10.461841,19.43649 13.050431,18.578074 15.260891,22.800239 18.305567,34.965183 5.824948,23.273462 8.820672,30.642214 20.207092,49.704534 6.890198,11.53506 6.993585,11.75521 6.719862,14.30918 -0.250601,2.33822 -1.780092,6.39676 -8.029388,21.30608 -3.706957,8.84392 -4.229604,12.71676 -4.248481,31.48149 -0.01725,17.14117 0.161511,19.0417 2.479315,26.35944 1.803641,5.69443 4.157784,9.57937 8.420488,13.896 3.749085,3.7965 10.787401,8.51008 11.557432,7.74005 0.478964,-0.47896 4.307878,-17.30022 5.53094,-24.29862 0.58863,-3.36815 1.20174,-9.1193 1.362474,-12.78034 0.160734,-3.66103 0.505558,-7.51074 0.766282,-8.5549 0.987489,-3.95478 5.069011,-5.77265 8.351389,-3.71964 2.549725,1.59477 5.478284,6.50799 8.654724,14.52 3.83328,9.66875 10.63119,23.23645 15.83398,31.60245 7.62384,12.25901 13.30765,19.34409 25.00157,31.16538 11.80516,11.93373 12.40378,12.85695 10.59921,16.34659 -1.76132,3.40602 -5.39964,4.27459 -9.38629,2.24075 -5.52281,-2.81753 -18.78842,-15.712 -25.82568,-25.10316 -2.11756,-2.82587 -8.12928,-12.21168 -13.35938,-20.85735 -5.23009,-8.64567 -9.694098,-15.60516 -9.920017,-15.46554 -0.225919,0.13963 -0.41076,0.80047 -0.41076,1.46854 0,4.8614 -4.896721,16.82908 -8.473521,20.70945 -3.289674,3.56888 -6.63081,4.81799 -12.116971,4.53004 -14.663516,-0.76964 -27.519748,-16.36333 -31.301155,-37.96607 -1.566933,-8.95171 -2.109387,-20.20304 -1.42496,-29.55584 0.886293,-12.11133 1.693671,-16.02708 6.527719,-31.6592 L 55.216373,138.45362 47.9591,124.342 C 39.752481,108.3844 33.986185,93.553056 31.433808,81.837713 28.858436,70.016825 27.461272,67.070772 18.1293,53.783905 2.4949559,31.523717 0.3910656,27.197798 0.91323143,18.385047 1.4644249,9.0823858 7.3393549,2.8854858 17.09117,1.3204915 c 9.337076,-1.4984361 18.952259,1.8747442 37.264842,13.0731815 13.196253,8.069723 12.305512,7.733751 28.982415,10.931617 38.368343,7.357289 70.258223,24.395355 98.556103,52.656388 15.61801,15.597668 28.11162,32.261532 40.94667,54.614282 6.3319,11.02725 20.32459,39.12092 26.25784,52.71888 2.55589,5.85765 5.60016,12.15016 6.76504,13.98334 2.61657,4.1177 5.69281,6.2045 15.5269,10.53284 7.33118,3.2267 14.74106,7.17565 25.61288,13.64986 17.34191,10.32716 40.18468,29.17347 45.98209,37.93728 3.47836,5.25814 2.69101,9.15973 -2.36554,11.72207 -5.40603,2.73944 -38.68436,11.50847 -46.9551,12.37294 -1.76872,0.18486 -3.14765,0.5271 -3.06429,0.76053 0.0834,0.23343 1.94881,2.49711 4.14543,5.0304 5.14194,5.93003 11.10981,11.244 20.16621,17.9566 3.99204,2.95891 9.53475,7.06812 12.31714,9.13159 6.7549,5.00957 14.88755,13.1592 16.52447,16.55896 2.50053,5.19345 1.11955,8.86296 -3.77407,10.02835 -0.85335,0.20321 -2.15012,-0.0661 -3.47564,-0.72197 z"
     id="path898"
     transform="scale(0.75000022)" />
  <path
     style="fill:#ffffff;stroke-width:0.047068"
     d="m 85.785015,78.343568 c -0.885712,-0.186309 -1.771287,-0.71986 -2.6138,-1.574791 -0.87874,-0.89169 -1.694795,-2.062335 -3.084818,-4.425223 -1.074938,-1.827277 -1.430272,-2.40731 -1.873557,-3.058314 -1.192191,-1.750841 -1.827943,-2.273302 -5.328003,-4.378556 -2.793365,-1.680183 -3.871315,-2.43882 -4.848565,-3.412309 -0.812981,-0.809853 -1.377566,-1.712784 -1.603971,-2.565208 -0.154525,-0.581789 -0.146456,-1.399434 0.02027,-2.054066 0.318785,-1.251681 0.991283,-2.43546 2.206621,-3.884255 0.200264,-0.238733 0.377876,-0.403644 0.468912,-0.435379 0.101965,-0.03554 1.732612,-0.05109 5.360539,-0.05109 h 5.213998 l 0.603647,0.22857 c 2.009896,0.761045 3.889584,1.881617 5.623226,3.352276 0.691088,0.586253 1.991703,1.922448 2.539138,2.608599 1.294398,1.622388 2.240867,3.260429 3.005175,5.201017 1.891167,4.801692 1.866518,9.103241 -0.06693,11.679406 -0.66551,0.886742 -1.730013,1.735501 -2.848412,2.271122 -0.80222,0.384198 -1.260423,0.50607 -1.976857,0.525801 -0.323593,0.0089 -0.682071,-0.0035 -0.796617,-0.0276 z"
     id="path1134"
     transform="scale(0.75000022)" />
</svg>
