<?xml version="1.0" encoding="UTF-8" standalone="no"?>
<svg
   width="12in"
   height="6.5in"
   viewBox="0 0 864 468"
   version="1.1"
   id="svg3"
   sodipodi:docname="PHP logo blanc.svg"
   inkscape:version="1.1.2 (0a00cf5339, 2022-02-04, custom)"
   xmlns:inkscape="http://www.inkscape.org/namespaces/inkscape"
   xmlns:sodipodi="http://sodipodi.sourceforge.net/DTD/sodipodi-0.dtd"
   xmlns="http://www.w3.org/2000/svg"
   xmlns:svg="http://www.w3.org/2000/svg">
  <defs
     id="defs7" />
  <sodipodi:namedview
     id="namedview5"
     pagecolor="#a6ffff"
     bordercolor="#666666"
     borderopacity="1.0"
     inkscape:pageshadow="2"
     inkscape:pageopacity="0"
     inkscape:pagecheckerboard="0"
     inkscape:document-units="in"
     showgrid="false"
     inkscape:zoom="0.32808036"
     inkscape:cx="562.36222"
     inkscape:cy="-24.38427"
     inkscape:window-width="1600"
     inkscape:window-height="837"
     inkscape:window-x="-8"
     inkscape:window-y="-8"
     inkscape:window-maximized="1"
     inkscape:current-layer="svg3" />
  <path
     style="fill:#ffffff;stroke-width:1.52402"
     d="M 525.78582,621.09311 C 494.50787,619.44252 419.32365,611.23127 392.43434,606.5291 274.53774,585.91235 169.48387,543.349 100.49354,488.24712 41.918722,441.46399 10.603064,390.48052 3.0705704,329.63761 -5.2945908,262.06892 29.212753,193.38061 100.25261,136.19268 199.64418,56.1813 364.56312,6.6748823 545.59804,2.5060557 651.31247,0.07168998 740.55459,9.550636 830.55822,32.773406 979.35818,71.166828 1092.2157,146.08794 1132.4327,233.17458 c 16.1145,34.89476 21.5578,78.3588 14.2846,114.06187 -17.0204,83.55153 -92.9465,158.07604 -212.77607,208.84827 -81.58516,34.56795 -166.80465,54.03612 -277.40784,63.3731 -25.37821,2.1424 -102.79057,3.11061 -130.74757,1.63529 z M 255.32853,455.47626 c 0.94902,-0.95084 3.8071,-13.98118 6.35132,-28.95632 6.02019,-35.43458 7.07984,-39.03362 11.88118,-40.35405 2.09552,-0.57629 17.18329,-1.11809 33.52837,-1.20402 46.32478,-0.24349 68.87524,-3.99905 92.85827,-15.46462 31.29719,-14.96227 52.72411,-51.06816 55.82746,-94.07331 1.76041,-24.39518 -5.59247,-45.7883 -21.05062,-61.24644 -8.97126,-8.97125 -16.73868,-13.75884 -30.15621,-18.58729 -9.74172,-3.50567 -10.68093,-3.54906 -87.09076,-4.02359 -73.23212,-0.45478 -77.31941,-0.33658 -78.71787,2.27647 -0.81128,1.51589 -9.82099,48.01922 -20.0216,103.34073 -10.20059,55.32152 -20.89811,112.92229 -23.77225,128.0017 -2.87415,15.07942 -5.22572,28.66262 -5.22572,30.18488 0,2.60112 1.92259,2.73966 31.93147,2.30121 21.19321,-0.30965 32.51175,-1.04793 33.65696,-2.19535 z m 500.89969,1.54727 c 4.38769,-1.1764 5.38384,-4.64019 11.12427,-38.6809 2.87908,-17.07294 5.63854,-29.09604 6.99561,-30.48034 1.82608,-1.86267 9.49914,-2.45926 41.43324,-3.22148 49.37478,-1.17849 68.54813,-4.61901 91.00869,-16.33083 31.34293,-16.34344 52.53957,-56.48092 52.5679,-99.54147 0.0171,-25.8684 -6.14164,-41.15437 -22.89448,-56.8247 -9.40889,-8.80091 -26.41371,-17.00153 -39.57953,-19.08731 -15.22063,-2.41131 -151.58757,-2.12364 -153.61898,0.32407 -1.52368,1.8359 -6.78407,28.82772 -25.4667,130.67301 -11.66141,63.57027 -23.41135,126.54086 -24.38494,130.68445 l -0.8057,3.42904 30.12836,-0.0207 c 16.57061,-0.0122 31.64211,-0.42668 33.49226,-0.92273 z M 535.77005,313.55819 550.32633,242.31868 577.5222,241.9016 c 39.59391,-0.60721 48.65474,1.70713 54.7537,13.98536 2.8378,5.71297 2.82935,5.89089 -1.26042,26.57193 -4.42723,22.38744 -20.1869,95.29187 -21.54954,99.68834 -0.77031,2.48539 1.5044,2.66703 33.40125,2.66703 34.22561,0 34.22793,-2.3e-4 35.08497,-3.42904 0.47141,-1.88597 6.18367,-27.4323 12.69394,-56.76963 11.73099,-52.86375 11.83722,-53.53813 11.88125,-75.43883 0.0404,-20.06742 -0.27166,-22.68978 -3.39493,-28.53484 -6.94409,-12.99552 -17.33579,-20.39094 -36.18509,-25.7517 -7.42423,-2.11146 -17.81426,-2.72221 -55.24107,-3.24716 l -46.09695,-0.64656 0.73651,-3.29523 c 1.50535,-6.73501 17.5426,-90.207065 17.5426,-91.307208 0,-1.305126 -57.03004,-1.543108 -61.81495,-0.257949 -2.18572,0.587051 -3.72429,3.012876 -5.06147,7.980277 -3.49957,13.00024 -58.09297,275.63341 -58.09297,279.46858 0,0.67611 14.91632,1.22557 33.14737,1.22101 l 33.14737,-0.008 14.55628,-71.23953 z"
     id="path898"
     transform="scale(0.75)" />
  <path
     style="fill:#ffffff;stroke-width:1.52402"
     d="m 280.35927,327.28262 c 1.58336,-10.93434 14.49895,-81.61764 15.3434,-83.97003 1.17393,-3.27023 64.57147,-1.67736 73.84982,1.85548 7.54641,2.87339 14.38459,8.66684 17.68385,14.98213 3.57313,6.83951 2.72779,23.96104 -1.86984,37.87203 -9.5294,28.83299 -25.9202,36.33846 -79.59316,36.4463 l -26.46233,0.0532 z"
     id="path1054"
     transform="scale(0.75)" />
  <path
     style="fill:#ffffff;stroke-width:1.52402"
     d="m 785.93075,317.37651 c 1.58629,-9.42985 5.25385,-29.72616 8.15013,-45.10291 2.89628,-15.37674 5.26596,-28.6457 5.26596,-29.48656 0,-2.11969 64.63289,-0.66121 71.80807,1.62039 7.08469,2.25283 14.72051,7.46944 18.60018,12.70721 6.09566,8.22948 4.83355,30.62548 -2.6838,47.62353 -8.42536,19.05124 -21.12096,26.23307 -50.09712,28.33962 -10.21741,0.74281 -26.53097,1.37156 -36.25235,1.39723 l -17.67523,0.0467 z"
     id="path1093"
     transform="scale(0.75)" />
</svg>
