<?xml version="1.0" encoding="UTF-8" standalone="no"?>
<svg
   width="12in"
   height="6.5in"
   viewBox="0 0 864 468"
   version="1.1"
   id="svg3"
   sodipodi:docname="PHP logo blanc.svg"
   inkscape:version="1.1.2 (0a00cf5339, 2022-02-04, custom)"
   xmlns:inkscape="http://www.inkscape.org/namespaces/inkscape"
   xmlns:sodipodi="http://sodipodi.sourceforge.net/DTD/sodipodi-0.dtd"
   xmlns="http://www.w3.org/2000/svg"
   xmlns:svg="http://www.w3.org/2000/svg">
  <defs
     id="defs7" />
  <sodipodi:namedview
     id="namedview5"
     pagecolor="#ff8dff"
     bordercolor="#666666"
     borderopacity="1.0"
     inkscape:pageshadow="2"
     inkscape:pageopacity="0"
     inkscape:pagecheckerboard="0"
     inkscape:document-units="in"
     showgrid="false"
     inkscape:zoom="0.32808036"
     inkscape:cx="815.34902"
     inkscape:cy="283.46714"
     inkscape:window-width="1600"
     inkscape:window-height="837"
     inkscape:window-x="-8"
     inkscape:window-y="-8"
     inkscape:window-maximized="1"
     inkscape:current-layer="svg3" />
  <path
     style="fill:#ffffff;stroke-width:3.04803"
     d="M 536.45393,619.84134 C 446.44373,616.44095 363.53542,603.58218 292.07358,581.93892 161.26875,542.32277 61.070422,472.94041 24.615313,396.7374 7.7057212,361.39088 3.141388,342.21165 3.4619348,307.85141 4.8240763,161.83976 191.11253,39.125433 457.28461,8.9035122 511.25611,2.7754374 636.02893,1.844061 682.75955,7.2204371 847.87529,26.217064 970.01811,70.616053 1060.1868,144.41547 c 65.7124,53.7829 99.3463,131.3007 86.2591,198.80578 -26.8979,138.74213 -210.33522,247.18797 -460.63831,272.32355 -58.91167,5.91596 -85.92051,6.69293 -149.35366,4.29654 z M 257.42164,451.46988 c 1.51797,-3.99256 4.45171,-18.73742 6.51943,-32.76636 2.06772,-14.02895 5.07459,-27.22169 6.68194,-29.31721 2.02653,-2.64204 13.32011,-3.81712 36.83959,-3.83306 44.38019,-0.0305 69.30448,-4.18391 92.40364,-15.39958 22.10111,-10.73109 32.03925,-21.50528 44.68841,-48.44776 10.78193,-22.96528 14.59304,-61.17156 8.07272,-80.92837 -4.80175,-14.54944 -21.90244,-33.55812 -37.88688,-42.11407 -11.67976,-6.25181 -17.06978,-6.69484 -92.79278,-7.62711 -44.216,-0.54438 -81.47838,0.14143 -82.80529,1.52401 -1.32692,1.38258 -12.88419,59.43582 -25.68284,129.00719 -12.79864,69.57137 -23.97812,128.89372 -24.84328,131.82746 -1.43146,4.85399 1.46971,5.33405 32.23619,5.33405 32.81034,0 33.89075,-0.21458 36.56915,-7.25919 z m 502.32542,3.44915 c 1.68139,-2.09552 5.34994,-17.43003 8.1523,-34.07671 2.80234,-16.64665 5.79038,-31.39152 6.64008,-32.76636 0.84971,-1.37482 16.89465,-2.51006 35.65542,-2.52271 80.20821,-0.0542 117.33088,-17.01796 138.51877,-63.29845 18.46042,-40.32282 15.27099,-83.70219 -7.85435,-106.82754 -22.63824,-22.63824 -25.75796,-23.28723 -117.02466,-24.34422 l -81.43136,-0.9431 -1.68498,7.03916 c -3.12399,13.05077 -47.29061,253.65331 -47.29061,257.62075 0,5.49305 61.91822,5.60433 66.31939,0.11918 z m -223.20988,-141.21988 14.76961,-71.8771 34.1733,1.01032 c 38.44912,1.13674 46.98691,5.0495 46.98691,21.53345 0,7.58581 -18.50861,99.96303 -23.21688,115.87639 -1.43849,4.86188 1.51856,5.33406 33.40651,5.33406 h 34.98476 l 6.11652,-26.6703 c 23.5178,-102.54621 25.27417,-122.63953 12.54912,-143.56423 -11.06888,-18.20131 -27.55843,-22.94072 -84.51954,-24.29253 -44.31798,-1.05176 -49.47919,-1.71564 -48.17372,-6.19659 1.74976,-6.00587 17.03665,-86.915441 17.03665,-90.170549 0,-2.700799 -62.65821,-1.053306 -65.42113,1.72014 -2.04895,2.056764 -15.91897,65.813219 -44.17656,203.067099 l -17.72758,86.10696 h 34.22122 34.22122 z"
     id="path1592"
     transform="scale(0.75)" />
  <path
     style="fill:#ffffff;stroke-width:3.04803"
     d="m 784.86868,329.97845 c 0,-2.50158 3.42904,-22.74587 7.62009,-44.9873 4.19104,-22.24143 7.62008,-40.9415 7.62008,-41.55571 0,-2.85044 63.70952,-0.355 73.15281,2.86532 15.6606,5.34052 22.52095,20.67408 18.22076,40.72516 -7.58563,35.37058 -21.3213,44.13496 -72.32336,46.14766 -28.97343,1.14339 -34.29038,0.64796 -34.29038,-3.19513 z"
     id="path1631"
     transform="scale(0.75)" />
  <path
     style="fill:#ffffff;stroke-width:3.04803"
     d="m 280.64957,328.42563 c 0.65107,-2.93373 4.01982,-21.10763 7.48612,-40.38644 3.46629,-19.27882 7.01246,-37.45272 7.88037,-40.38645 1.36608,-4.61762 5.65753,-5.33406 31.95086,-5.33406 31.77481,0 48.73051,4.3594 56.43802,14.5105 6.3745,8.39547 5.07171,31.29826 -2.63872,46.3879 -12.33788,24.14577 -27.47966,30.34767 -74.39147,30.4699 -25.01954,0.0652 -27.7864,-0.47952 -26.72518,-5.26135 z"
     id="path1670"
     transform="scale(0.75)" />
</svg>
