<?xml version="1.0" encoding="UTF-8" standalone="no"?>
<svg
   width="137.931mm"
   height="137.931mm"
   viewBox="0 0 512 512"
   version="1.1"
   id="svg3"
   sodipodi:docname="Skill logo blanc.svg"
   inkscape:version="1.1.2 (0a00cf5339, 2022-02-04, custom)"
   xmlns:inkscape="http://www.inkscape.org/namespaces/inkscape"
   xmlns:sodipodi="http://sodipodi.sourceforge.net/DTD/sodipodi-0.dtd"
   xmlns="http://www.w3.org/2000/svg"
   xmlns:svg="http://www.w3.org/2000/svg">
  <defs
     id="defs7" />
  <sodipodi:namedview
     id="namedview5"
     pagecolor="#69ffff"
     bordercolor="#666666"
     borderopacity="1.0"
     inkscape:pageshadow="2"
     inkscape:pageopacity="0"
     inkscape:pagecheckerboard="0"
     inkscape:document-units="mm"
     showgrid="false"
     inkscape:zoom="0.88301197"
     inkscape:cx="240.65359"
     inkscape:cy="271.797"
     inkscape:window-width="1600"
     inkscape:window-height="837"
     inkscape:window-x="-8"
     inkscape:window-y="-8"
     inkscape:window-maximized="1"
     inkscape:current-layer="svg3" />
  <path
     style="fill:#ffffff;stroke-width:0.80079"
     d="M 18.466047,351.74682 C 15.263217,348.5343 13.160591,343.03086 9.1557163,327.37783 2.3735282,300.86969 0.90965508,286.91792 1.3969261,253.43092 1.6870372,233.49346 2.0201133,228.27161 3.5410083,219.81674 13.776396,162.91678 38.119093,115.5586 77.23924,76.438451 c 39.5076,-39.5076 84.29311,-62.33526 142.42826,-72.5972335 11.99402,-2.1171762 13.73716,-2.2178459 38.58714,-2.2284903 20.74798,-0.00889 28.21793,0.2849678 36.83632,1.4490812 41.40273,5.592395 77.87155,19.4026106 110.90936,41.9997666 9.55604,6.536136 16.13367,11.72907 29.38555,23.199444 4.71078,4.077478 8.76876,7.413596 9.01777,7.413596 0.24899,0 0.21471,-6.588745 -0.0762,-14.641656 -0.47252,-13.080611 -0.37658,-14.962677 0.8999,-17.652646 2.68328,-5.654592 9.58954,-7.137219 14.17234,-3.042495 2.54414,2.27319 2.58134,2.41246 3.15505,11.811646 0.31931,5.231233 0.60789,18.081346 0.6413,28.555807 0.0654,20.520429 -0.38249,23.337479 -4.07652,25.637449 -3.77965,2.35327 -52.20835,4.09876 -59.27385,2.13638 -6.69007,-1.85812 -9.26531,-9.500523 -4.85621,-14.411558 2.77829,-3.094563 7.84173,-3.928601 24.22389,-3.990094 l 11.61144,-0.04356 -6.00592,-5.596117 C 388.56916,50.661479 343.26178,28.656026 295.50144,21.629246 275.84807,18.737727 247.68705,18.730827 227.6978,21.612632 185.30659,27.724073 144.13651,45.392844 110.70583,71.82152 100.12291,80.187857 80.140987,100.18246 71.724608,110.82748 35.26454,156.94205 17.056079,211.56745 19.112153,268.6649 c 0.808417,22.44987 2.679209,33.77869 9.776723,59.20422 2.38914,8.55865 4.343891,16.79276 4.343891,18.29804 0,4.16319 -4.326752,8.18223 -8.808685,8.18223 -2.7284,0 -3.853138,-0.4913 -5.958035,-2.60257 z"
     id="path120"
     transform="scale(0.98213356)" />
  <path
     style="fill:#ffffff;stroke-width:0.80079"
     d="m 245.04161,520.07166 c -50.08732,-2.89209 -99.41738,-20.50564 -138.38396,-49.41071 -9.023973,-6.69391 -20.85753,-16.69069 -25.740224,-21.74489 -1.741013,-1.80216 -3.485746,-3.27666 -3.877184,-3.27666 -0.400414,0 -0.592022,6.97497 -0.438073,15.94692 0.260155,15.16155 0.190989,16.05876 -1.404434,18.21796 -4.019973,5.44052 -12.235278,4.93849 -15.095308,-0.92247 -1.427458,-2.92524 -1.587256,-5.4854 -1.902212,-30.47575 -0.30465,-24.17259 -0.193937,-27.57211 0.971333,-29.8255 2.14934,-4.15636 4.740112,-4.97089 15.862708,-4.98713 5.417191,-0.008 16.983471,-0.36081 25.702844,-0.78422 18.56277,-0.90141 22.65736,-0.37312 25.76892,3.32475 3.0714,3.65015 2.80366,8.06212 -0.70198,11.56775 -1.98264,1.98265 -3.45184,2.73275 -5.40533,2.75968 -19.8154,0.2733 -28.708303,1.27238 -28.708303,3.22526 0,0.90774 31.463853,25.23004 38.838293,30.02293 31.30616,20.3469 68.82642,33.34713 107.57106,37.27185 13.60489,1.37814 45.87121,0.48512 58.99317,-1.63272 50.42557,-8.13852 94.959,-30.29378 131.98279,-65.66109 28.15204,-26.89249 53.25251,-68.65403 64.14238,-106.71852 6.30456,-22.03695 8.67346,-39.76082 8.70247,-65.11091 0.0316,-27.60263 -1.66741,-39.63121 -9.7832,-69.26318 -2.23087,-8.14523 -4.05612,-16.01899 -4.05612,-17.49726 0,-1.98894 0.70789,-3.39565 2.72268,-5.41044 5.68057,-5.68057 12.74722,-2.4953 16.50174,7.4381 2.83357,7.49685 8.67272,31.705 10.58128,43.86825 1.57676,10.04878 1.76624,14.3644 1.79421,40.86453 0.029,27.49722 -0.10053,30.34949 -1.80044,39.63909 -8.61267,47.06594 -26.34939,87.09487 -54.05132,121.98513 -7.68985,9.68528 -24.69857,27.25271 -34.20579,35.32941 -43.49245,36.94825 -97.06809,58.01835 -155.80548,61.27481 -7.89927,0.43794 -15.2632,0.74898 -16.36428,0.69119 -1.10109,-0.0578 -6.68659,-0.37555 -12.41224,-0.70616 z"
     id="path159"
     transform="scale(0.98213356)" />
  <path
     style="fill:#ffffff;stroke-width:0.80079"
     d="m 215.81279,417.34443 c -7.31279,-2.28563 -23.6056,-8.3184 -26.61544,-9.85496 -6.76122,-3.45167 -11.80031,-11.16179 -11.81464,-18.07714 -0.004,-2.07645 0.7118,-7.48178 1.59134,-12.01185 0.87953,-4.53006 1.60024,-9.83008 1.60158,-11.77781 0.002,-3.38687 -0.28569,-3.81975 -6.60409,-9.92595 -3.63359,-3.51155 -7.68758,-6.83642 -9.00889,-7.3886 -2.78182,-1.16255 -7.02542,-0.63724 -16.81658,2.08169 -9.1307,2.53553 -15.8465,2.40308 -21.02357,-0.41464 -5.42425,-2.95225 -7.85517,-6.57525 -15.01186,-22.37338 -6.4626,-14.26598 -8.08188,-19.72173 -7.21885,-24.32211 1.31994,-7.03588 4.84164,-11.01326 17.7948,-20.0973 9.28051,-6.50841 9.84614,-7.50601 9.82051,-17.32024 -0.0184,-7.05756 -0.98426,-11.27661 -3.09605,-13.52451 -0.90849,-0.96704 -5.13442,-3.72496 -9.39096,-6.12872 -19.56193,-11.04702 -21.668004,-17.58202 -13.15091,-40.80638 6.89132,-18.7912 9.47075,-22.89643 16.41969,-26.13227 5.16989,-2.40742 10.69192,-2.44808 22.98323,-0.16922 7.99827,1.4829 9.69665,1.58218 11.8448,0.69239 2.91492,-1.2074 10.46629,-9.25013 13.46703,-14.34332 l 2.0718,-3.51649 -2.50812,-10.49733 c -1.37946,-5.77353 -2.71804,-11.93875 -2.97462,-13.70048 -0.93934,-6.44971 3.122,-14.63735 9.06552,-18.27605 6.52541,-3.99494 25.86155,-12.60057 30.97922,-13.78744 12.02206,-2.7881 18.43317,0.95985 29.11715,17.02194 2.70012,4.05931 5.60513,7.75295 6.45557,8.20809 3.22425,1.72556 22.87424,0.41749 25.41591,-1.6919 0.54822,-0.45499 3.22672,-4.66877 5.95223,-9.36397 6.0379,-10.40144 10.31867,-14.80452 16.04723,-16.50572 6.3625,-1.88946 9.52491,-1.5425 20.55748,2.25546 21.21454,7.30308 27.2074,10.73798 30.72626,17.61122 2.08947,4.08127 2.20369,11.43831 0.32952,21.22334 -0.70528,3.68224 -1.28233,8.53548 -1.28233,10.78499 v 4.09001 l 7.00691,6.61499 c 8.79298,8.30117 10.03804,8.76389 17.84827,6.63318 18.44388,-5.03166 24.16196,-4.85848 30.73916,0.931 4.55454,4.00906 7.53318,9.07901 14.04719,23.90968 4.33007,9.85846 5.10938,12.33683 5.1619,16.41619 0.12386,9.61963 -3.33178,14.48015 -16.45084,23.13893 -4.07383,2.68879 -8.10776,5.85067 -8.9643,7.02639 -1.95572,2.68455 -2.81352,15.28318 -1.39619,20.50615 1.06407,3.92117 3.19535,5.71038 14.07724,11.81784 12.65244,7.10118 16.99251,14.41043 14.89303,25.08188 -1.00184,5.09229 -8.37549,25.61821 -11.17257,31.10095 -2.17704,4.26735 -6.10837,8.13676 -10.11715,9.95782 -4.29626,1.95165 -10.57182,1.88998 -22.32378,-0.21941 -9.24563,-1.65951 -9.65976,-1.66943 -12.21644,-0.29256 -3.87265,2.08556 -14.52377,13.33755 -15.20875,16.06673 -0.40411,1.61011 0.20116,5.35314 1.95031,12.06068 4.11772,15.79042 3.2347,23.05132 -3.54468,29.14751 -3.63036,3.26451 -27.26811,14.52376 -34.40479,16.38785 -3.78867,0.9896 -5.60403,1.06825 -8.90445,0.3858 -7.11787,-1.47182 -10.35568,-4.51015 -21.26444,-19.95437 -2.64197,-3.74038 -4.96756,-6.1802 -6.22116,-6.52669 -3.4919,-0.96514 -14.69667,-0.68474 -17.87058,0.44721 -4.33905,1.5475 -5.76054,3.07684 -10.77635,11.59397 -2.44513,4.15197 -5.71389,8.95276 -7.2639,10.66845 -5.99703,6.63799 -13.36309,8.25916 -23.3476,5.13848 z m 13.4917,-20.26967 c 6.44415,-13.06805 13.10381,-20.91931 20.02705,-23.61046 3.94178,-1.53222 6.15473,-1.76552 17.33139,-1.82721 11.7327,-0.0648 13.11929,0.0804 16.45088,1.72237 4.7462,2.33915 7.94701,5.72605 14.77757,15.63679 7.56234,10.97251 7.65236,10.9954 20.88324,5.31006 11.84116,-5.08816 15.55503,-7.76869 15.55503,-11.22703 0,-1.31135 -1.10172,-6.51253 -2.44826,-11.55816 -2.94454,-11.03346 -3.1318,-15.86528 -0.80142,-20.67919 0.93974,-1.94125 5.88975,-8.06527 11.00002,-13.60894 13.58269,-14.73463 16.81775,-15.94333 33.49032,-12.51282 9.59796,1.97486 13.33667,2.02316 15.49755,0.2002 1.40292,-1.18354 7.37662,-15.67212 9.82251,-23.82349 1.29502,-4.31593 -0.24413,-6.14015 -10.07761,-11.94402 -15.84177,-9.35005 -17.52327,-11.93939 -18.50498,-28.49585 -1.35079,-22.78121 -0.42603,-24.85283 16.42896,-36.80328 8.38633,-5.94604 9.65607,-7.37037 9.65607,-10.83154 0,-2.31425 -8.94462,-22.37431 -10.97876,-24.622 -1.83261,-2.02502 -5.37611,-1.77556 -15.23867,1.07275 -10.63751,3.07213 -16.8225,3.31191 -21.62222,0.83826 -3.20772,-1.65318 -16.73429,-13.81807 -21.87459,-19.67255 -5.32401,-6.06371 -6.02751,-13.49814 -2.81041,-29.69968 1.04947,-5.28522 1.67095,-9.85162 1.38106,-10.14758 -1.42545,-1.45526 -25.31913,-10.27256 -27.83724,-10.27256 -3.55967,0 -4.93019,1.48725 -11.80699,12.81263 -5.4637,8.99816 -9.58473,12.99818 -14.76961,14.33595 -1.63311,0.42136 -9.10923,1.0145 -16.61359,1.31808 -12.90522,0.52207 -13.86381,0.45754 -17.69651,-1.19125 -4.88674,-2.10221 -8.82529,-6.08918 -15.47379,-15.66396 -5.76307,-8.29963 -6.7285,-9.20908 -9.77599,-9.20908 -2.3577,0 -22.50238,8.92409 -24.88975,11.02616 -2.01959,1.77824 -1.77341,5.7398 1.08765,17.50235 3.87097,15.91459 3.19104,18.04855 -10.42977,32.73357 -13.51355,14.56939 -16.14947,15.62164 -32.89953,13.1335 -12.89301,-1.91519 -14.79851,-1.90382 -16.66492,0.0995 -1.51938,1.63086 -9.79891,23.33759 -9.7743,25.62559 0.0265,2.4616 2.62739,4.81324 10.24482,9.26297 16.25636,9.49618 18.14492,12.37971 19.09365,29.15292 0.76997,13.6128 0.52119,18.00063 -1.24859,22.02171 -1.70074,3.86423 -7.16095,9.07439 -15.26408,14.56504 -8.37007,5.67152 -9.94086,7.50673 -9.38055,10.95955 0.57659,3.5531 8.91093,21.1189 11.152,23.50439 2.29509,2.44302 5.11356,2.34299 16.37581,-0.58121 10.63562,-2.76149 15.35485,-2.97231 19.93789,-0.89065 5.04805,2.29286 23.83941,20.09653 26.06779,24.69764 2.42147,4.99982 2.30672,14.04164 -0.33114,26.09031 l -1.89524,8.65664 2.15028,1.11195 c 5.73817,2.96733 25.78462,10.23471 29.64386,10.74671 0.23579,0.0313 1.6097,-2.33802 3.05311,-5.26512 z"
     id="path198"
     transform="scale(0.98213356)" />
  <path
     style="fill:#ffffff;stroke-width:0.80079"
     d="m 248.24477,319.39232 c -19.1889,-4.08504 -34.15261,-16.10638 -42.37009,-34.03874 -14.61057,-31.8835 1.77363,-71.16685 33.9618,-81.42803 8.93934,-2.84975 19.01416,-4.35567 25.11691,-3.75432 25.45257,2.50803 44.96218,17.53281 53.0649,40.86643 2.0253,5.83232 2.2279,7.4467 2.26108,18.01777 0.0411,13.09021 -0.96624,18.11117 -5.54241,27.62542 -11.88611,24.71225 -39.72778,38.40922 -66.49219,32.71147 z m 22.18249,-17.1784 c 14.03927,-2.92771 25.7787,-13.85178 30.83997,-28.69798 2.14509,-6.29221 2.46181,-18.02735 0.66837,-24.76553 -5.01247,-18.83259 -21.13138,-30.70894 -41.67899,-30.70894 -15.91934,0 -28.01119,6.64246 -36.52874,20.06647 -5.51453,8.69115 -7.39088,23.01251 -4.3707,33.35973 4.32602,14.82102 15.9798,26.54692 30.17873,30.3655 5.22743,1.40583 15.11192,1.58598 20.89136,0.38075 z"
     id="path237"
     transform="scale(0.98213356)" />
</svg>
